Coordinates
version=1
nRows=49
nColumns=12
inDegrees=yes

Units are S.I. units (second, meters, Newtons, ...)
Angles are in degrees

endheader
time	SC_y	SC_z	SC_x	AC_y	AC_z	AC_x	GH_y	GH_z	GH_yy	EL_x	PS_y
       0.0              -26.45          16.91          1.213          54.33         -2.937          17.38         -41.86          81.59         -18.69          67.89          75.93
   0.04095              -26.45          16.91          1.222          54.34         -2.938          17.37         -41.83          81.59         -18.72           67.9          75.93
    0.0819              -26.45          16.91          1.232          54.34         -2.939          17.37         -41.81          81.59         -18.74           67.9          75.93
    0.1228              -26.45          16.91          1.242          54.34          -2.94          17.36         -41.78          81.59         -18.76          67.91          75.93
    0.1638              -26.45          16.92          1.253          54.34         -2.941          17.36         -41.75          81.59         -18.79          67.91          75.93
    0.2047              -26.45          16.92          1.264          54.34         -2.942          17.35         -41.72          81.59         -18.81          67.91          75.93
    0.2457              -26.45          16.92          1.277          54.34         -2.944          17.34         -41.69          81.58         -18.84          67.92          75.93
    0.2866              -26.46          16.92           1.29          54.34         -2.945          17.34         -41.65          81.58         -18.87          67.93          75.93
    0.3276              -26.46          16.92          1.304          54.34         -2.947          17.33         -41.61          81.58         -18.91          67.93          75.93
    0.3685              -26.46          16.92          1.319          54.34         -2.949          17.32         -41.57          81.58         -18.94          67.94          75.93
    0.4095              -26.46          16.93          1.335          54.35         -2.951          17.31         -41.53          81.58         -18.98          67.94          75.93
    0.4504              -26.46          16.93          1.353          54.35         -2.953           17.3         -41.48          81.57         -19.02          67.95          75.93
    0.4914              -26.47          16.93          1.371          54.35         -2.955          17.29         -41.43          81.57         -19.07          67.96          75.93
    0.5323              -26.47          16.93          1.392          54.35         -2.957          17.28         -41.38          81.57         -19.11          67.97          75.93
    0.5733              -26.47          16.94          1.414          54.35          -2.96          17.26         -41.32          81.57         -19.17          67.98          75.93
    0.6142              -26.48          16.94          1.438          54.35         -2.963          17.25         -41.25          81.56         -19.22          67.99          75.92
    0.6552              -26.48          16.94          1.463          54.36         -2.966          17.23         -41.18          81.56         -19.28           68.0          75.92
    0.6961              -26.48          16.95          1.492          54.36         -2.969          17.22         -41.11          81.56         -19.35          68.01          75.92
    0.7371              -26.49          16.95          1.523          54.36         -2.972           17.2         -41.03          81.55         -19.42          68.02          75.92
     0.778              -26.49          16.96          1.556          54.36         -2.976          17.18         -40.93          81.55          -19.5          68.04          75.92
     0.819               -26.5          16.96          1.593          54.37         -2.981          17.16         -40.84          81.55         -19.59          68.05          75.92
    0.8599               -26.5          16.97          1.634          54.37         -2.985          17.13         -40.73          81.54         -19.69          68.07          75.92
    0.9009              -26.51          16.97          1.679          54.38         -2.991          17.11          -40.6          81.54         -19.79          68.09          75.92
    0.9418              -26.51          16.98          1.729          54.38         -2.996          17.08         -40.47          81.53         -19.91          68.11          75.92
    0.9828              -26.52          16.99          1.784          54.38         -3.003          17.05         -40.32          81.52         -20.04          68.13          75.92
     1.024              -26.53           17.0          1.846          54.39          -3.01          17.01         -40.16          81.52         -20.19          68.16          75.92
     1.065              -26.54          17.01          1.916           54.4         -3.018          16.97         -39.97          81.51         -20.35          68.19          75.92
     1.106              -26.55          17.02          1.994           54.4         -3.027          16.92         -39.76           81.5         -20.53          68.22          75.92
     1.147              -26.56          17.03          2.082          54.41         -3.037          16.87         -39.52          81.49         -20.74          68.26          75.91
     1.188              -26.57          17.04          2.182          54.42         -3.049          16.82         -39.25          81.47         -20.98           68.3          75.91
     1.228              -26.59          17.06          2.296          54.43         -3.062          16.75         -38.95          81.46         -21.25          68.35          75.91
     1.269              -26.61          17.07          2.427          54.44         -3.077          16.67          -38.6          81.44         -21.56          68.41          75.91
      1.31              -26.63          17.09          2.579          54.45         -3.095          16.58         -38.19          81.43         -21.91          68.47          75.91
     1.351              -26.65          17.12          2.754          54.47         -3.115          16.48         -37.72          81.41         -22.33          68.54           75.9
     1.392              -26.68          17.15           2.96          54.49         -3.139          16.36         -37.16          81.38         -22.81          68.63           75.9
     1.433              -26.71          17.18          3.203          54.51         -3.167          16.22         -36.51          81.35         -23.38          68.73          75.89
     1.474              -26.75          17.22          3.491          54.53         -3.201          16.05         -35.74          81.32         -24.06          68.85          75.89
     1.515              -26.79          17.27          3.836          54.56         -3.241          15.85         -34.81          81.27         -24.88           69.0          75.88
     1.556              -26.85          17.32          4.254           54.6         -3.289          15.61         -33.69          81.22         -25.86          69.18          75.88
     1.597              -26.91          17.39          4.765          54.65         -3.348          15.31         -32.32          81.16         -27.07          69.39          75.87
     1.638               -27.0          17.48          5.395           54.7         -3.422          14.94         -30.62          81.09         -28.55          69.66          75.86
     1.679               -27.1          17.58          6.181          54.77         -3.513          14.48         -28.51          80.99         -30.41          69.99          75.84
      1.72              -27.23          17.72          7.171          54.86         -3.628          13.91         -25.85          80.87         -32.74          70.41          75.83
     1.761               -27.4          17.89           8.43          54.97         -3.774          13.17         -22.47          80.72         -35.71          70.94           75.8
     1.802              -27.61           18.1          10.04          55.11          -3.96          12.23         -18.15          80.52         -39.51          71.62          75.78
     1.843              -27.88          18.38          12.11          55.29           -4.2          11.03         -12.59          80.27         -44.38          72.49          75.74
     1.884              -28.23          18.74          14.75          55.52         -4.507          9.488         -5.503          79.95         -50.61          73.61           75.7
     1.925              -28.67          19.19          18.07          55.81         -4.892          7.552          3.414          79.55         -58.44          75.01          75.64
     1.966               -29.2          19.74          22.11          56.16         -5.361          5.193          14.28          79.06         -67.98          76.72          75.57
